# xmcd
#
# Track frame offsets:
#	150
#	19312
#	37549
#	56193
#	88705
#	108013
#	130468
#	150285
#	168756
#	187257
#	204461
#	222095
#
# Disc length: 3266 seconds
#
# Revision: 1
# Processed by: cddbd v1.5.2PL0 Copyright (c) Steve Scherf et al.
# Submitted via: audiograbber 1.83.01
#
DISCID=980cc00c
DTITLE=Otis Taylor - Definition Of A Circle
DYEAR=2006
DGENRE=Blues
TTITLE0=Little Betty
TTITLE1=Black's Mandolin Boogie
TTITLE2=Looking Over Your Fence
TTITLE3=They Wore Blue
TTITLE4=Few Feet Away
TTITLE5=Something In Your Back Pocket
TTITLE6=My Name Is General Jackson
TTITLE7=Love And Hesitation
TTITLE8=Maharaja Daughter
TTITLE9=Long Long Life
TTITLE10=Mexican Cowboy
TTITLE11=Lifetime Of Feedom
EXTD=
EXTT0=
EXTT1=
EXTT2=
EXTT3=
EXTT4=
EXTT5=
EXTT6=
EXTT7=
EXTT8=
EXTT9=
EXTT10=
EXTT11=
PLAYORDER=
